#!OML:ASF I:\Actors\actors\Patient Classification 2\Patient 1\Session 1\actor1.ASF
:FULLY-SPECIFIED
:DEGREES
616
root -0.404097 18.7298 5.43174 2.50651 -7.12323 -2.55353
lowerback 5.66626 -1.43745 -6.91524
upperback 2.41011 -2.29311 -1.8401
thorax -0.486028 -1.18148 2.10674
lowerneck -15.9973 2.28143 6.15465
upperneck 30.7744 0.79039 1.62157
head 13.0177 1.24191 -0.31715
rclavicle -7.95139e-016 -1.90833e-014
rhumerus -17.5138 52.6872 -94.6196
rradius 88.085
rwrist 13.0607
rhand -9.45596 -56.5147
rfingers 7.12502
rthumb 16.5075 -445.832
lclavicle -7.95139e-016 -1.90833e-014
lhumerus 2.55595 -37.1069 52.1129
lradius 73.923
lwrist 17.8845
lhand -9.06453 -51.1721
lfingers 7.12502
lthumb 16.8843 -21.8861
rfemur 0 0 0
rtibia 0
rfoot 0 0
rtoes 0
lfemur -4.96389 -4.46225 -12.9367
ltibia 22.4724
lfoot -25.0835 17.8004
ltoes -53.5775
617
root -0.399734 18.7292 5.43075 2.4632 -7.14088 -2.57847
lowerback 5.71954 -1.44887 -6.99655
upperback 2.47122 -2.31362 -1.81527
thorax -0.445915 -1.19494 2.17895
lowerneck -15.9472 2.35251 6.30575
upperneck 30.5871 0.866678 1.59366
head 12.9336 1.28493 -0.343371
rclavicle -3.08116e-014 1.43125e-014
rhumerus -17.5855 52.7053 -94.7357
rradius 89.3727
rwrist 13.1428
rhand -8.89743 -57.0635
rfingers 7.12502
rthumb 17.0452 -446.336
lclavicle -3.08116e-014 1.43125e-014
lhumerus 2.60458 -37.2606 51.6442
lradius 74.2515
lwrist 18.1164
lhand -9.07404 -51.1218
lfingers 7.12502
lthumb 16.8752 -21.835
rfemur 0 0 0
rtibia 0
rfoot 0 0
rtoes 0
lfemur -4.9299 -4.42415 -12.9214
ltibia 22.4929
lfoot -25.0362 17.7924
ltoes -53.5392
618
root -0.39335 18.7298 5.42875 2.46133 -7.10368 -2.57497
lowerback 5.82184 -1.49167 -7.04998
upperback 2.47986 -2.38168 -1.794
thorax -0.484532 -1.22827 2.23734
lowerneck -15.6883 2.43305 6.45054
upperneck 30.4129 1.0128 1.45322
head 12.8126 1.34185 -0.403238
rclavicle -9.14409e-015 1.59028e-015
rhumerus -17.5897 52.2785 -94.8908
rradius 91.3805
rwrist 12.8084
rhand -10.5838 -57.5412
rfingers 7.12502
rthumb 15.4214 -446.946
lclavicle -9.14409e-015 1.59028e-015
lhumerus 2.3991 -37.2919 51.3355
lradius 74.7974
lwrist 18.367
lhand -8.96132 -50.9372
lfingers 7.12502
lthumb 16.9837 -21.6597
rfemur 0 0 0
rtibia 0
rfoot 0 0
rtoes 0
lfemur -4.98973 -4.36795 -12.933
ltibia 22.5513
lfoot -24.9911 17.6951
ltoes -53.544
619
root -0.383802 18.7315 5.4273 2.46138 -7.02174 -2.60855
lowerback 5.96302 -1.56073 -6.98799
upperback 2.46899 -2.48318 -1.78642
thorax -0.567848 -1.27558 2.22143
lowerneck -15.3554 2.52778 6.67985
upperneck 30.3055 1.18544 1.22869
head 12.7072 1.41022 -0.506136
rclavicle -1.17283e-014 -1.90833e-014
rhumerus -17.3073 51.5836 -94.9157
rradius 93.378
rwrist 13.2412
rhand -10.8549 -57.6862
rfingers 7.12502
rthumb 15.1603 -447.111
lclavicle -1.17283e-014 -1.90833e-014
lhumerus 2.02018 -37.2152 51.1515
lradius 75.4245
lwrist 18.557
lhand -8.89137 -50.8861
lfingers 7.12502
lthumb 17.051 -21.6144
rfemur 0 0 0
rtibia 0
rfoot 0 0
rtoes 0
lfemur -5.06823 -4.42186 -12.9267
ltibia 22.6329
lfoot -24.965 17.6719
ltoes -53.5634
620
root -0.373738 18.7332 5.42551 2.44875 -6.91989 -2.70058
lowerback 6.0768 -1.64878 -6.82327
upperback 2.48955 -2.60002 -1.79643
thorax -0.607972 -1.33195 2.1299
lowerneck -15.111 2.63675 6.86651
upperneck 30.3102 1.33651 1.14042
head 12.6665 1.48499 -0.551202
rclavicle 3.4191e-014 2.8625e-014
rhumerus -16.8574 50.7037 -94.8456
rradius 95.2661
rwrist 13.6854
rhand -10.9249 -57.2644
rfingers 7.12502
rthumb 15.0928 -446.694
lclavicle 3.4191e-014 2.8625e-014
lhumerus 1.61575 -37.0624 50.9409
lradius 76.0603
lwrist 18.7826
lhand -8.88386 -50.9388
lfingers 7.12502
lthumb 17.0582 -21.6677
rfemur 0 0 0
rtibia 0
rfoot 0 0
rtoes 0
lfemur -5.13533 -4.35981 -12.843
ltibia 22.703
lfoot -24.8153 17.5757
ltoes -53.611
621
root -0.366144 18.7331 5.42637 2.39277 -6.9278 -2.77214
lowerback 6.14557 -1.69283 -6.64515
upperback 2.52398 -2.65351 -1.85536
thorax -0.617655 -1.35772 1.97522
lowerneck -15.0064 2.71756 6.91592
upperneck 30.4413 1.4235 1.20144
head 12.7029 1.53866 -0.523314
rclavicle 3.97569e-015 -4.77083e-015
rhumerus -16.5196 49.7325 -94.8912
rradius 97.0383
rwrist 13.9499
rhand -9.5501 -57.4117
rfingers 7.12502
rthumb 16.4168 -446.737
lclavicle 3.97569e-015 -4.77083e-015
lhumerus 1.26599 -36.863 50.7914
lradius 76.5337
lwrist 19.0422
lhand -8.81664 -50.8518
lfingers 7.12502
lthumb 17.1229 -21.5863
rfemur 0 0 0
rtibia 0
rfoot 0 0
rtoes 0
lfemur -5.10453 -4.13458 -12.7725
ltibia 22.7429
lfoot -24.6972 17.4157
ltoes -53.6299
622
root -0.359277 18.7327 5.43081 2.29026 -7.05526 -2.79439
lowerback 6.17518 -1.7 -6.48309
upperback 2.54427 -2.65671 -1.94028
thorax -0.625052 -1.35823 1.79878
lowerneck -14.9607 2.73497 6.92639
upperneck 30.6192 1.45106 1.17697
head 12.768 1.55168 -0.529957
rclavicle 2.52457e-014 -1.90833e-014
rhumerus -16.4266 48.9932 -95.143
rradius 97.522
rwrist 14.3283
rhand -11.188 -56.3716
rfingers 7.12502
rthumb 14.8394 -445.82
lclavicle 2.52457e-014 -1.90833e-014
lhumerus 0.92657 -36.5358 50.9273
lradius 76.5629
lwrist 19.1564
lhand -8.71998 -50.7221
lfingers 7.12502
lthumb 17.216 -21.4647
rfemur 0 0 0
rtibia 0
rfoot 0 0
rtoes 0
lfemur -4.94515 -4.03945 -12.7893
ltibia 22.7399
lfoot -24.7345 17.428
ltoes -53.6189
623
root -0.351555 18.7327 5.43663 2.20681 -7.21142 -2.77418
lowerback 6.15504 -1.6977 -6.44604
upperback 2.51746 -2.65162 -1.94956
thorax -0.644324 -1.35443 1.7683
lowerneck -14.9298 2.7046 6.86579
upperneck 30.8318 1.45138 1.08008
head 12.848 1.53575 -0.556452
rclavicle 4.55217e-014 1.59028e-014
rhumerus -16.604 48.8284 -95.438
rradius 96.5317
rwrist 14.4263
rhand -12.0306 -56.3238
rfingers 7.12502
rthumb 14.0275 -445.831
lclavicle 4.55217e-014 1.59028e-014
lhumerus 0.490856 -36.0673 51.4898
lradius 76.0795
lwrist 19.0066
lhand -8.60106 -50.7449
lfingers 7.12502
lthumb 17.3304 -21.4976
rfemur 0 0 0
rtibia 0
rfoot 0 0
rtoes 0
lfemur -4.75729 -4.15485 -12.885
ltibia 22.6921
lfoot -24.9061 17.6202
ltoes -53.5655
624
root -0.345091 18.7325 5.44461 2.21089 -7.37722 -2.69313
lowerback 6.04206 -1.67426 -6.5708
upperback 2.42525 -2.62214 -1.89521
thorax -0.670574 -1.33811 1.88967
lowerneck -14.9372 2.64163 6.70263
upperneck 31.0337 1.40919 1.05331
head 12.9283 1.49845 -0.544627
rclavicle -1.94809e-014 -4.29375e-014
rhumerus -17.0023 49.4267 -95.6759
rradius 94.3192
rwrist 15.1324
rhand -10.8089 -57.616
rfingers 7.12502
rthumb 15.2046 -447.037
lclavicle -1.94809e-014 -4.29375e-014
lhumerus 0.0600159 -35.6097 52.3112
lradius 75.2117
lwrist 18.6132
lhand -8.56987 -50.8098
lfingers 7.12502
lthumb 17.3604 -21.5651
rfemur 0 0 0
rtibia 0
rfoot 0 0
rtoes 0
lfemur -4.65104 -4.32181 -13.0486
ltibia 22.6263
lfoot -25.1463 17.8715
ltoes -53.4622
625
root -0.340633 18.7308 5.45241 2.2614 -7.51049 -2.57746
lowerback 5.87051 -1.62256 -6.7609
upperback 2.34816 -2.5524 -1.83264
thorax -0.648547 -1.30371 2.05108
lowerneck -15.0165 2.52629 6.53566
upperneck 31.0761 1.28002 1.06153
head 12.9547 1.4246 -0.53201
rclavicle 1.88845e-014 4.77083e-015
rhumerus -17.3906 50.4565 -95.7651
rradius 91.9778
rwrist 14.2234
rhand -11.0001 -58.111
rfingers 7.12502
rthumb 15.0204 -447.546
lclavicle 1.88845e-014 4.77083e-015
lhumerus -0.120117 -35.2596 53.1186
lradius 74.1913
lwrist 18.1523
lhand -8.6583 -50.7937
lfingers 7.12502
lthumb 17.2753 -21.5415
rfemur 0 0 0
rtibia 0
rfoot 0 0
rtoes 0
lfemur -4.62387 -4.41467 -13.2247
ltibia 22.5684
lfoot -25.2986 18.028
ltoes -53.3579
626
root -0.335872 18.7266 5.45701 2.2737 -7.56611 -2.50482
lowerback 5.736 -1.52682 -6.90095
upperback 2.37627 -2.41854 -1.76247
thorax -0.546283 -1.24187 2.18845
lowerneck -15.1537 2.36849 6.37068
upperneck 30.8941 1.06317 1.15781
head 12.8976 1.32062 -0.49954
rclavicle 6.75868e-015 1.90833e-014
rhumerus -17.853 51.3501 -95.6872
rradius 90.1194
rwrist 14.0845
rhand -10.6954 -58.0051
rfingers 7.12502
rthumb 15.3139 -447.418
lclavicle 6.75868e-015 1.90833e-014
lhumerus 0.00554415 -34.9864 53.8595
lradius 73.356
lwrist 17.8386
lhand -8.68494 -50.7242
lfingers 7.12502
lthumb 17.2497 -21.4698
rfemur 0 0 0
rtibia 0
rfoot 0 0
rtoes 0
lfemur -4.59869 -4.39952 -13.3273
ltibia 22.5327
lfoot -25.3253 18.0343
ltoes -53.3374
